<?xml version="1.0" encoding="UTF-8"?>
<svg width="212px" height="44px" viewBox="0 0 212 44" version="1.1" xmlns="http://www.w3.org/2000/svg" xmlns:xlink="http://www.w3.org/1999/xlink">
    <!-- Generator: Sketch 53 (72520) - https://sketchapp.com -->
    <title>Logo / Light</title>
    <desc>Created with Sketch.</desc>
    <g id="Logo-/-Light" stroke="none" stroke-width="1" fill="none" fill-rule="evenodd">
        <g id="Hangar-Logo">
            <path d="M50.78,9.22 L54.595,9.22 L65.27,34 L60.23,34 L57.92,28.33 L47.175,28.33 L44.935,34 L40,34 L50.78,9.22 Z M56.38,24.55 L52.565,14.47 L48.68,24.55 L56.38,24.55 Z M76.714999,9.22 L82.559999,9.22 L94.564999,27.63 L94.634999,27.63 L94.634999,9.22 L99.044999,9.22 L99.044999,34 L93.444999,34 L81.194999,14.995 L81.124999,14.995 L81.124999,34 L76.714999,34 L76.714999,9.22 Z M135.269998,32.18 C132.213316,33.8133415 128.795017,34.63 125.014998,34.63 C123.101655,34.63 121.345839,34.3208364 119.747498,33.7025 C118.149157,33.0841636 116.772504,32.2091723 115.617498,31.0775 C114.462492,29.9458277 113.558335,28.5866746 112.904998,27 C112.251661,25.4133254 111.924998,23.6516763 111.924998,21.715 C111.924998,19.7316567 112.251661,17.9291748 112.904998,16.3075 C113.558335,14.6858252 114.462492,13.303339 115.617498,12.16 C116.772504,11.0166609 118.149157,10.1358364 119.747498,9.5175 C121.345839,8.89916357 123.101655,8.59 125.014998,8.59 C126.905007,8.59 128.678323,8.81749772 130.334998,9.2725 C131.991673,9.72750227 133.473325,10.5383275 134.779998,11.705 L131.524998,14.995 C130.731661,14.2249961 129.76917,13.6300021 128.637498,13.21 C127.505826,12.7899979 126.310004,12.58 125.049998,12.58 C123.766658,12.58 122.605837,12.8074977 121.567498,13.2625 C120.529159,13.7175023 119.636668,14.347496 118.889998,15.1525 C118.143328,15.957504 117.565833,16.8966613 117.157498,17.97 C116.749163,19.0433387 116.544998,20.1983271 116.544998,21.435 C116.544998,22.7650067 116.749163,23.9899944 117.157498,25.11 C117.565833,26.2300056 118.143328,27.1983293 118.889998,28.015 C119.636668,28.8316708 120.529159,29.473331 121.567498,29.94 C122.605837,30.406669 123.766658,30.64 125.049998,30.64 C126.170004,30.64 127.225826,30.535001 128.217498,30.325 C129.20917,30.114999 130.089994,29.7883355 130.859998,29.345 L130.859998,23.5 L125.784998,23.5 L125.784998,19.51 L135.269998,19.51 L135.269998,32.18 Z M157.179997,9.22 L160.994997,9.22 L171.669997,34 L166.629997,34 L164.319997,28.33 L153.574997,28.33 L151.334997,34 L146.399997,34 L157.179997,9.22 Z M162.779997,24.55 L158.964997,14.47 L155.079997,24.55 L162.779997,24.55 Z M183.114996,9.22 L191.724996,9.22 C192.915002,9.22 194.064157,9.33083222 195.172496,9.5525 C196.280835,9.77416777 197.266658,10.1533307 198.129996,10.69 C198.993334,11.2266694 199.68166,11.9499954 200.194996,12.86 C200.708332,13.7700045 200.964996,14.924993 200.964996,16.325 C200.964996,18.1216756 200.469168,19.6266606 199.477496,20.84 C198.485824,22.0533394 197.068339,22.7883321 195.224996,23.045 L201.804996,34 L196.484996,34 L190.744996,23.5 L187.524996,23.5 L187.524996,34 L183.114996,34 L183.114996,9.22 Z M190.954996,19.72 C191.584999,19.72 192.214993,19.6908336 192.844996,19.6325 C193.474999,19.5741664 194.052493,19.4341678 194.577496,19.2125 C195.102499,18.9908322 195.528328,18.6525023 195.854996,18.1975 C196.181664,17.7424977 196.344996,17.1066707 196.344996,16.29 C196.344996,15.566663 196.193331,14.9833355 195.889996,14.54 C195.586661,14.0966644 195.189998,13.7641678 194.699996,13.5425 C194.209994,13.3208322 193.667499,13.1750003 193.072496,13.105 C192.477493,13.0349996 191.899999,13 191.339996,13 L187.524996,13 L187.524996,19.72 L190.954996,19.72 Z" id="ANGAR" fill="#000000" fill-rule="nonzero"></path>
            <g id="H">
                <rect id="Rectangle" fill="#000000" x="0" y="0" width="34" height="44"></rect>
                <polygon fill="#FFFFFF" points="6.52 9.22 11.98 9.22 11.98 18.46 22.585 18.46 22.585 9.22 28.045 9.22 28.045 34 22.585 34 22.585 23.29 11.98 23.29 11.98 34 6.52 34"></polygon>
            </g>
        </g>
    </g>
</svg>