<?xml version="1.0" encoding="UTF-8"?>
<svg width="100px" height="100px" viewBox="0 0 100 100" version="1.1" xmlns="http://www.w3.org/2000/svg" xmlns:xlink="http://www.w3.org/1999/xlink">
    <!-- Generator: Sketch 58 (84663) - https://sketch.com -->
    <title>Assembly Line</title>
    <desc>Created with Sketch.</desc>
    <g id="Assembly-Line" stroke="none" stroke-width="1" fill="none" fill-rule="evenodd">
        <path d="M67.8397182,27.0243397 C67.7598126,27.1187736 67.6944352,27.2204717 67.6435862,27.3366982 L67.8397182,27.0243397 Z" id="Path" fill="#000000" fill-rule="nonzero"></path>
        <g transform="translate(6.000000, 31.000000)" id="Group-3">
            <g>
                <path d="M0.00726125578,18.8867929 L76.4239819,18.8867929 C82.7925952,18.8867929 87.9553764,23.2334532 87.9553764,28.5953304 C87.9553764,33.9572077 82.7925952,38.303868 76.4239819,38.303868 L0.00726125578,38.303868" id="Path" stroke="#1D1E1F" stroke-width="2.43141505" stroke-linecap="round" stroke-linejoin="round"></path>
                <g id="Group" transform="translate(69.683964, 22.585283)">
                    <circle id="Oval-Copy-4" stroke="#1D1E1F" stroke-width="2.43141505" cx="5.99292443" cy="5.99292443" r="4.7772169"></circle>
                    <circle id="Oval-Copy-5" fill="#D0021B" cx="5.99292443" cy="5.99292443" r="1.84924525"></circle>
                </g>
                <g id="Group-Copy" transform="translate(52.250001, 22.585283)">
                    <circle id="Oval-Copy-4" stroke="#1D1E1F" stroke-width="2.43141505" cx="5.99292443" cy="5.99292443" r="4.7772169"></circle>
                    <circle id="Oval-Copy-5" fill="#D0021B" cx="5.99292443" cy="5.99292443" r="1.84924525"></circle>
                </g>
                <g id="Group-Copy-2" transform="translate(34.867925, 22.585283)">
                    <circle id="Oval-Copy-4" stroke="#1D1E1F" stroke-width="2.43141505" cx="5.99292443" cy="5.99292443" r="4.7772169"></circle>
                    <circle id="Oval-Copy-5" fill="#D0021B" cx="5.99292443" cy="5.99292443" r="1.84924525"></circle>
                </g>
                <g id="Group-Copy-3" transform="translate(17.433963, 22.585283)">
                    <circle id="Oval-Copy-4" stroke="#1D1E1F" stroke-width="2.43141505" cx="5.99292443" cy="5.99292443" r="4.7772169"></circle>
                    <circle id="Oval-Copy-6" stroke="#1D1E1F" stroke-width="2.43141505" cx="5.99292443" cy="5.99292443" r="4.7772169"></circle>
                    <circle id="Oval-Copy-5" fill="#D0021B" cx="5.99292443" cy="5.99292443" r="1.84924525"></circle>
                </g>
                <g id="Group-Copy-4" transform="translate(0.000000, 22.585283)">
                    <circle id="Oval-Copy-4" stroke="#1D1E1F" stroke-width="2.43141505" cx="5.99292443" cy="5.99292443" r="4.7772169"></circle>
                    <circle id="Oval-Copy-6" stroke="#1D1E1F" stroke-width="2.43141505" cx="5.99292443" cy="5.99292443" r="4.7772169"></circle>
                    <circle id="Oval-Copy-5" fill="#D0021B" cx="5.99292443" cy="5.99292443" r="1.84924525"></circle>
                </g>
                <path d="M47.1806613,14.9952833 C45.9806221,14.9952833 45.005526,14.0321876 44.9861441,12.8367673 L44.98585,12.800472 L44.98585,8.88042469 C44.98585,8.27434428 45.4771753,7.78301904 46.0832557,7.78301904 C46.6636242,7.78301904 47.1399694,8.23954244 47.1667226,8.81714276 L47.1674176,8.83542263 C47.2343224,11.0854949 47.9699574,12.2219158 49.3743226,12.2446855 L49.4481143,12.2452833 L69.0667018,12.2452833 L69.1404935,12.2446855 C70.5448587,12.2219158 71.2804937,11.0854949 71.3473985,8.83542263 C71.3648299,8.24920405 71.8450827,7.78301904 72.4315604,7.78301904 C73.03158,7.78301904 73.5191281,8.26456691 73.5289661,8.86227708 L73.5289661,8.88042469 L73.5289661,12.800472 L73.528672,12.8367673 C73.5094839,14.0202334 72.5536003,14.9759982 71.3700877,14.9949951 L71.3341548,14.9952833 L47.1806613,14.9952833 Z" id="Path" fill="#000000"></path>
                <path d="M8.52500013,14.9952833 C7.32496092,14.9952833 6.34986478,14.0321876 6.33048286,12.8367673 L6.33018882,12.800472 L6.33018882,8.88042469 C6.33018882,8.27434428 6.82151406,7.78301904 7.42759447,7.78301904 C8.00796302,7.78301904 8.4843082,8.23954244 8.51106142,8.81714276 L8.51175641,8.83542263 C8.57866121,11.0854949 9.31429619,12.2219158 10.7186614,12.2446855 L10.7924531,12.2452833 L30.4110406,12.2452833 L30.4848323,12.2446855 C31.8891975,12.2219158 32.6248325,11.0854949 32.6917373,8.83542263 C32.7091687,8.24920405 33.1894215,7.78301904 33.7758992,7.78301904 C34.3759188,7.78301904 34.8634669,8.26456691 34.8733049,8.86227708 L34.8733049,8.88042469 L34.8733049,12.800472 L34.8730108,12.8367673 C34.8538227,14.0202334 33.8979391,14.9759982 32.7144265,14.9949951 L32.6784936,14.9952833 L8.52500013,14.9952833 Z" id="Path-Copy" fill="#000000"></path>
                <g id="noun_Apple_1871999-(1)" transform="translate(15.825472, 0.000000)" fill="#000000" fill-rule="nonzero">
                    <g id="Group">
                        <path d="M6.47362712,2.53432969 C5.97180029,2.58008615 5.48088273,2.7059164 5.0336023,2.91182044 C4.826326,1.60776149 4.34631772,0.175269776 3.23357126,0.0265612995 C2.41537534,-0.0878298363 2.28446399,0.715510636 2.78629082,0.852779999 C3.70267026,1.11587961 4.13904142,2.04244781 4.32449916,3.00333335 C3.82267233,2.74023374 3.2662991,2.58008615 2.69901659,2.53432969 C0.571707191,2.36274299 -0.584676382,4.36458787 0.298975216,7.20148804 C0.964441234,9.34060227 2.2299176,10.9420782 3.888128,10.5874657 C4.13904142,10.5302701 4.36813628,10.4273181 4.59723114,10.3014878 C4.81541672,10.4273181 5.05542085,10.5302701 5.30633427,10.5874657 C6.96454468,10.9420782 8.23002104,9.34060227 8.89548706,7.20148804 C9.7573201,4.36458787 8.6118458,2.35130388 6.47362712,2.53432969 Z" id="Path" transform="translate(4.591981, 5.326121) scale(-1, 1) translate(-4.591981, -5.326121) "></path>
                    </g>
                </g>
                <path d="M61.8397182,4.02433966 C61.7598126,4.11877362 61.6944352,4.22047174 61.6435862,4.33669815 L61.8397182,4.02433966 Z" id="Path" fill="#000000" fill-rule="nonzero"></path>
                <path d="M62.5210008,8.00061219 C62.6707772,7.48853781 62.671716,6.91541518 62.5404886,6.34866409 L62.2904198,5.33736709 C62.2529095,5.18567254 62.3416071,4.8232232 62.383872,4.63357105 L62.4937608,4.14047547 C62.5529317,3.87496246 62.5534012,3.58840115 62.4971943,3.32503916 C62.4284841,3.01111232 62.225465,2.73094972 61.9215968,2.54775062 C61.8482493,2.50353015 61.7685914,2.46984741 61.6889336,2.43616468 C61.8001466,2.27294167 61.9393986,2.12662305 62.0872304,2.00964149 L62.1134034,1.98930475 C62.2772391,1.85860418 62.4598886,1.76793071 62.6676623,1.70674662 C62.8985351,1.63080426 63.1482216,1.59488901 63.4041013,1.62007635 L63.4575485,1.00689943 C62.8849452,0.962869136 62.0902727,1.29057162 61.8795851,1.42901097 C61.7391267,1.52130387 61.599724,1.6344039 61.461377,1.76831106 C61.3170693,1.92990785 61.2140777,2.05426404 61.1524021,2.14137965 L61.1020257,2.10047564 C61.0514521,2.05990094 60.9999911,2.0208081 60.9449805,1.98764275 C60.6515905,1.81076086 60.3097426,1.76242853 59.990759,1.84261859 C59.7221412,1.91014706 59.4869833,2.0408748 59.274807,2.2284846 L58.8924847,2.55733272 L58.7541774,2.67179522 C58.6068051,2.79257456 58.4204312,2.9379621 58.3170347,2.97053708 L57.309718,3.22376885 C56.7677379,3.36001855 56.2737329,3.62126995 55.8905724,3.9917182 L55.8651933,4.01657635 C55.1466293,4.71639637 54.8261201,5.72791071 54.9902206,6.71606271 L55.2416105,8.20144933 C55.2768609,8.4521769 55.3687875,8.67970514 55.5110799,8.89457179 C55.661708,9.14314834 55.8816331,9.34745009 56.122632,9.49274592 L56.1855013,9.53064918 C56.3152315,9.60886226 56.4773607,9.65457308 56.6573862,9.67142748 L56.6845224,9.67373967 C56.8753901,9.68841644 57.063998,9.80212622 57.1665201,9.96433134 C57.2690423,10.1265365 57.3904957,10.2571284 57.5267125,10.3392521 L57.5791035,10.3708382 C57.8305806,10.5224512 58.1094419,10.6045206 58.3925884,10.6318046 C58.6379898,10.6506747 58.8876764,10.6147595 59.1290273,10.5451343 L60.5436732,10.0641842 C61.502884,9.72458097 62.2320435,8.95943783 62.5210008,8.00061219 Z" id="Path" fill="#000000" fill-rule="nonzero"></path>
            </g>
        </g>
    </g>
</svg>