<?xml version="1.0" encoding="UTF-8"?>
<svg width="100px" height="100px" viewBox="0 0 100 100" version="1.1" xmlns="http://www.w3.org/2000/svg" xmlns:xlink="http://www.w3.org/1999/xlink">
    <!-- Generator: Sketch 53 (72520) - https://sketchapp.com -->
    <title>cherry-machine</title>
    <desc>Created with Sketch.</desc>
    <g id="cherry-machine" stroke="none" stroke-width="1" fill="none" fill-rule="evenodd">
        <g id="cherry-machine-Icon" transform="translate(20.000000, 20.000000)" fill="#000000">
            <g id="Group">
                <g fill-rule="nonzero" id="Shape">
                    <path d="M57.8819978,53.393998 L1.51799994,53.393998 C0.659999975,53.393998 0,52.733998 0,51.875998 L0,1.51799994 C0,0.659999975 0.659999975,0 1.51799994,0 L57.8819978,0 C58.7399978,0 59.3999977,0.659999975 59.3999977,1.51799994 L59.3999977,51.875998 C59.3999977,52.733998 58.7399978,53.393998 57.8819978,53.393998 Z M3.03599988,50.3579981 L56.3639979,50.3579981 L56.3639979,3.03599988 L3.03599988,3.03599988 L3.03599988,50.3579981 Z"></path>
                    <path d="M13.0019995,59.3999977 L7.52399971,59.3999977 C6.66599975,59.3999977 6.00599977,58.7399978 6.00599977,57.8819978 L6.00599977,52.403998 C6.00599977,51.545998 6.66599975,50.8859981 7.52399971,50.8859981 L13.0019995,50.8859981 C13.8599995,50.8859981 14.5199994,51.545998 14.5199994,52.403998 L14.5199994,57.8819978 C14.5199994,58.7399978 13.7939995,59.3999977 13.0019995,59.3999977 Z M9.04199966,56.3639979 L11.4839996,56.3639979 L11.4839996,53.921998 L9.04199966,53.921998 L9.04199966,56.3639979 Z"></path>
                    <path d="M51.875998,59.3999977 L46.3979982,59.3999977 C45.5399983,59.3999977 44.8799983,58.7399978 44.8799983,57.8819978 L44.8799983,52.403998 C44.8799983,51.545998 45.5399983,50.8859981 46.3979982,50.8859981 L51.875998,50.8859981 C52.733998,50.8859981 53.393998,51.545998 53.393998,52.403998 L53.393998,57.8819978 C53.393998,58.7399978 52.733998,59.3999977 51.875998,59.3999977 Z M47.9159982,56.3639979 L50.3579981,56.3639979 L50.3579981,53.921998 L47.9159982,53.921998 L47.9159982,56.3639979 Z"></path>
                </g>
                <g transform="translate(11.220000, 11.220000)" fill-rule="nonzero" id="Path">
                    <path d="M35.7059986,8.38199968 L1.51799994,8.38199968 C0.659999975,8.38199968 0,9.04199966 0,9.89999962 C0,10.7579996 0.659999975,11.4179996 1.51799994,11.4179996 L35.6399986,11.4179996 C36.4979986,11.4179996 37.1579986,10.7579996 37.1579986,9.89999962 C37.2239986,9.04199966 36.4979986,8.38199968 35.7059986,8.38199968 Z"></path>
                    <path d="M35.7059986,16.1039994 L1.51799994,16.1039994 C0.659999975,16.1039994 0,16.7639994 0,17.6219993 C0,18.4799993 0.659999975,19.1399993 1.51799994,19.1399993 L35.6399986,19.1399993 C36.4979986,19.1399993 37.1579986,18.4799993 37.1579986,17.6219993 C37.2239986,16.7639994 36.4979986,16.1039994 35.7059986,16.1039994 Z"></path>
                    <path d="M35.7059986,0.593999977 L1.51799994,0.593999977 C0.659999975,0.593999977 0,1.25399995 0,2.11199992 C0,2.96999989 0.659999975,3.62999986 1.51799994,3.62999986 L35.6399986,3.62999986 C36.4979986,3.62999986 37.1579986,2.96999989 37.1579986,2.11199992 C37.2239986,1.31999995 36.4979986,0.593999977 35.7059986,0.593999977 Z"></path>
                    <path d="M18.2819993,32.2739988 C16.4999994,32.2739988 15.0479994,30.8219988 15.0479994,29.0399989 C15.0479994,27.257999 16.4999994,25.805999 18.2819993,25.805999 C20.0639992,25.805999 21.5159992,27.257999 21.5159992,29.0399989 C21.5159992,30.8219988 20.0639992,32.2739988 18.2819993,32.2739988 Z"></path>
                </g>
            </g>
        </g>
    </g>
</svg>