<?xml version="1.0" encoding="UTF-8"?>
<svg width="100px" height="100px" viewBox="0 0 100 100" version="1.1" xmlns="http://www.w3.org/2000/svg" xmlns:xlink="http://www.w3.org/1999/xlink">
    <!-- Generator: Sketch 53 (72520) - https://sketchapp.com -->
    <title>Cherry-package</title>
    <desc>Created with Sketch.</desc>
    <g id="Cherry-package" stroke="none" stroke-width="1" fill="none" fill-rule="evenodd">
        <g id="cherry-package-icon" transform="translate(17.000000, 17.000000)">
            <g id="Icon">
                <g id="Group-6" transform="translate(0.037208, 0.000000)">
                    <g id="Group-5" fill="#000000">
                        <path d="M8.53179756,55.9960372 L31.8758862,65.8352288 C32.3430783,66.032366 32.8889185,66.032366 33.3561106,65.8352288 L56.5847689,55.9960372 C57.1617651,55.7497955 57.527586,55.2411553 57.5285816,54.6837527 L57.5285816,43.7264712 L63.5309593,40.6958589 C64.3692457,40.2773696 64.9425811,39.551319 65.089187,38.722577 C65.235793,37.893835 64.9397717,37.0522703 64.2846515,36.4353477 L58.0853633,30.6095106 L55.4236755,28.8087973 L46.5355393,24.7307113 C46.0003595,24.472157 45.3456561,24.4847773 44.8242699,24.7636982 C44.3028836,25.0426191 43.9964197,25.5441852 44.0232319,26.0746959 C44.0500441,26.6052067 44.4059357,27.0816288 44.9534647,27.3199723 L52.1508858,30.62128 L32.4598279,39.1717258 L12.9249405,30.8213592 L20.0748315,27.4141272 C20.626618,27.172444 20.9821919,26.6890104 21.002067,26.1534699 C21.0219421,25.6179294 20.7029486,25.1156919 20.1702228,24.8437775 C19.6374971,24.5718631 18.976,24.5736377 18.4452267,24.848405 L9.82869138,28.926491 L7.02441313,30.6095106 L0.825124902,36.4588865 C0.180435305,37.0752631 -0.109049846,37.9107856 0.0372090554,38.7329978 C0.183467957,39.55521 0.749864285,40.2763773 1.57881712,40.6958589 L7.58119477,43.7029324 L7.58119477,54.6543293 C7.57035423,55.2236489 7.94105078,55.7468606 8.53179756,55.9960372 Z M10.9558347,45.4036061 L19.905081,49.8818506 C21.4674336,50.6672589 23.4356434,50.4914541 24.7803153,49.446384 L24.8346355,49.4051912 L30.9456535,44.2560927 L30.9456535,62.1808401 L10.9558347,53.7422033 L10.9558347,45.4036061 Z M54.1539417,53.7422033 L34.3135034,62.1749554 L34.3135034,44.3914405 L40.2751409,49.4228453 L40.3294611,49.464038 C41.674133,50.5091081 43.6423428,50.6849129 45.2046954,49.8995047 L54.1539417,45.4036061 L54.1539417,53.7422033 Z M55.4576256,32.4573014 L61.6365437,38.2890232 L43.5139804,47.3632059 C43.2217446,47.5092568 42.8552574,47.4810237 42.5973277,47.2925897 L35.3591665,41.1901724 L55.4576256,32.4573014 Z M9.46882032,32.6161878 L29.6894998,41.2372499 L22.5124487,47.2984743 C22.254519,47.4869084 21.8880318,47.5151415 21.595796,47.3690905 L3.47323269,38.2890232 L9.46882032,32.6161878 Z" id="Shape" fill-rule="nonzero"></path>
                        <path d="M32.7755288,-2.84217094e-14 C31.8417727,-2.86177088e-14 31.0848138,0.656031026 31.0848138,1.46528631 L31.0848138,16.7125025 L26.4743903,12.7168021 C25.809276,12.1719055 24.764616,12.1846341 24.1174396,12.7455203 C23.4702633,13.3064064 23.4555764,14.2117784 24.0843033,14.7882108 L31.5533252,21.2613632 C32.2134823,21.8330473 33.2832552,21.8330473 33.9434123,21.2613632 L41.4124342,14.7882108 C41.8596277,14.4218464 42.0418261,13.8738358 41.8881342,13.357416 C41.7344422,12.8409962 41.2691333,12.4377285 40.6732643,12.3045288 C40.0773953,12.1713291 39.4450753,12.3292344 39.0223472,12.7168021 L34.4594538,16.7125025 L34.4594538,1.47705568 C34.4630685,1.08742025 34.2874691,0.712582748 33.9714752,0.43540855 C33.6554813,0.158234351 33.2251191,0.00155225735 32.7755288,-2.84217094e-14 Z" id="Path"></path>
                    </g>
                    <g id="noun_Cherry_842566" transform="translate(32.914051, 30.205958) rotate(27.000000) translate(-32.914051, -30.205958) translate(27.297030, 25.011513)" fill-rule="nonzero">
                        <path d="M8.7307502,6.16618444 L9.42004227,6.21296082 C9.42004227,5.51672516 9.09036199,4.45377409 8.83198475,3.78841574 C8.37429362,2.60979564 7.40364213,1.73167978 6.11178034,1.11991966 C5.22692606,0.700897625 4.16537461,0.553831104 3.22378847,0.553831104 L1.0563316,0.611111111 L1.94184143,0.611111111 L1.0563316,0.611111111 L0.65478727,1.44670337 L1.40109346,1.47069199 C2.02421132,1.59040043 2.3985438,1.80920828 2.76904112,2.2889468 C3.13953844,2.76868532 3.08415028,3.13849927 2.85580681,3.68497112 C2.7070322,3.99009604 2.59479802,4.30554767 2.51910428,4.63132602 C2.44341054,4.95710438 2.37524626,5.49104668 2.31461143,6.23315293 C1.86583505,6.22425515 1.9392777,6.52844958 1.45232163,6.9025941 C1.06861975,7.19740499 0.761161649,7.36738444 0.761161649,8.02592593 C0.761161649,9.19407704 1.77532616,9.67851533 3.07737983,9.67851533 C4.3794335,9.67851533 5.48388079,9.19407704 5.48388079,8.02592593 C5.48388079,7.36738444 4.5645164,7.71081437 4.20027668,7.39335437 C3.74028384,6.99231882 3.86051746,6.1830533 3.41174108,6.19216293 L3.41769117,5.7439637 C3.41769117,5.53295926 3.4179771,5.12241254 3.50074276,4.92486069 L3.85356797,3.87671862 C4.14661269,3.17570084 4.21417775,2.47434815 3.738718,1.85891852 C3.60742641,1.68901333 3.45216702,1.53881037 3.27955163,1.40915704 C5.9738629,1.48394074 8.14041031,3.4722763 8.14041031,5.90740741 L8.14041031,6.16629037 C7.69163392,6.15739259 7.07567328,6.17434074 6.61556236,6.5753763 C6.25132265,6.89294222 6.07422068,7.36738444 6.07422068,8.02592593 C6.07422068,9.19407704 7.13352659,10.1444444 8.43558025,10.1444444 C9.73763392,10.1444444 10.7969398,9.19407704 10.7969398,8.02592593 C10.7969398,7.36738444 10.6198379,6.89294222 10.2555981,6.57548222 C9.79548723,6.17444667 9.17952659,6.15707481 8.7307502,6.16618444 Z" id="Path" fill="#000000"></path>
                        <path d="M4.32551585,7.1453637 C4.50663213,7.30308741 4.59837095,7.59936222 4.59837095,8.02592593 C4.59837095,8.75607333 3.9363638,9.35 3.12252122,9.35 C2.30867864,9.35 1.64667149,8.75607333 1.64667149,8.02592593 C1.64667149,7.59936222 1.73841031,7.30308741 1.91952659,7.1453637 C2.10170548,6.98658074 2.3914443,6.95904 2.68106505,6.95904 C2.76005253,6.95904 2.83904,6.96115852 2.91590226,6.96306519 C3.06254269,6.96677259 3.18249975,6.96677259 3.32914018,6.96306519 C3.68806684,6.95384963 4.09386648,6.94325704 4.32551585,7.1453637 Z" id="Path" stroke="#D0021B" stroke-width="2.52000006" fill="#D0021B"></path>
                        <path d="M8.43558025,9.35 C7.62173768,9.35 6.95973052,8.75607333 6.95973052,8.02592593 C6.95973052,7.59936222 7.01788195,7.36681164 7.23258562,7.1453637 C7.44728929,6.92391576 7.70450333,6.95904 7.99412408,6.95904 C8.07311156,6.95904 8.15209904,6.96115852 8.22896129,6.96306519 C8.30582355,6.96497185 8.49555879,6.96677259 8.64219922,6.96306519 C9.00124394,6.95384963 9.40680744,6.94325704 9.63857489,7.1453637 C9.81969117,7.30308741 9.91142999,7.59936222 9.91142999,8.02592593 C9.91142999,8.75607333 9.24942283,9.35 8.43558025,9.35 Z" id="Path" stroke="#D0021B" stroke-width="2.52" fill="#D0021B"></path>
                    </g>
                </g>
            </g>
        </g>
    </g>
</svg>