<?xml version="1.0" encoding="UTF-8"?>
<svg width="100px" height="100px" viewBox="0 0 100 100" version="1.1" xmlns="http://www.w3.org/2000/svg" xmlns:xlink="http://www.w3.org/1999/xlink">
    <!-- Generator: Sketch 53 (72520) - https://sketchapp.com -->
    <title>freezer</title>
    <desc>Created with Sketch.</desc>
    <g id="freezer" stroke="none" stroke-width="1" fill="none" fill-rule="evenodd">
        <g id="Freezer-Icon" transform="translate(18.000000, 18.000000)">
            <g id="Icon">
                <g id="Group-3" fill="#000000" fill-rule="nonzero" stroke="#000000" stroke-linejoin="round">
                    <path d="M63.6024845,26.6335404 C63.6024845,26.36853 63.4699793,25.9710145 63.3374741,25.8385093 L57.1097308,13.9130435 C56.8447205,13.515528 56.447205,13.2505176 55.9171843,13.2505176 L33.126294,13.2505176 L33.126294,1.32505176 C33.126294,0.530020704 32.5962733,2.13162821e-14 31.8012422,2.13162821e-14 L2.7826087,2.13162821e-14 C2.38509317,2.13162821e-14 1.98757764,0.265010352 1.72256729,0.530020704 C1.45755694,0.927536232 1.45755694,1.32505176 1.59006211,1.72256729 L6.22774327,14.310559 L0.132505176,25.9710145 C0.132505176,25.9710145 0.132505176,25.9710145 0.132505176,25.9710145 C0.132505176,25.9710145 0.132505176,25.9710145 0.132505176,26.1035197 C-2.06057393e-13,26.36853 -2.06057393e-13,26.5010352 -2.06057393e-13,26.6335404 C-2.06057393e-13,26.6335404 -2.06057393e-13,26.6335404 -2.06057393e-13,26.6335404 L-2.06057393e-13,55.3871636 C-2.06057393e-13,56.1821946 0.530020704,56.7122153 1.32505176,56.7122153 L3.3126294,56.7122153 L3.3126294,59.494824 C3.3126294,61.747412 5.16770186,63.6024845 7.42028986,63.6024845 L7.42028986,63.6024845 C9.67287785,63.6024845 11.5279503,61.747412 11.5279503,59.494824 L11.5279503,56.7122153 L51.942029,56.7122153 L51.942029,59.494824 C51.942029,61.747412 53.7971014,63.6024845 56.0496894,63.6024845 L56.0496894,63.6024845 C58.3022774,63.6024845 60.1573499,61.747412 60.1573499,59.494824 L60.1573499,56.7122153 L62.2774327,56.7122153 C63.0724638,56.7122153 63.6024845,56.1821946 63.6024845,55.3871636 L63.6024845,26.6335404 C63.6024845,26.7660455 63.6024845,26.6335404 63.6024845,26.6335404 Z M60.0248447,25.3084886 L33.126294,25.3084886 L33.126294,15.7681159 L55.1221532,15.7681159 L60.0248447,25.3084886 Z M30.4761905,2.65010352 L30.4761905,13.1180124 L8.48033126,13.1180124 L4.77018634,2.65010352 L30.4761905,2.65010352 Z M8.48033126,15.7681159 L30.4761905,15.7681159 L30.4761905,25.3084886 L3.44513458,25.3084886 L8.48033126,15.7681159 Z M8.87784679,59.494824 C8.87784679,60.2898551 8.21532091,60.952381 7.42028986,60.952381 L7.42028986,60.952381 C6.6252588,60.952381 5.96273292,60.2898551 5.96273292,59.494824 L5.96273292,56.7122153 L9.01035197,56.7122153 L9.01035197,59.494824 L8.87784679,59.494824 Z M57.6397516,59.494824 C57.6397516,60.2898551 56.9772257,60.952381 56.1821946,60.952381 L56.1821946,60.952381 C55.3871636,60.952381 54.7246377,60.2898551 54.7246377,59.494824 L54.7246377,56.7122153 L57.7722567,56.7122153 L57.7722567,59.494824 L57.6397516,59.494824 Z M60.952381,54.0621118 L2.65010352,54.0621118 L2.65010352,27.9585921 L60.952381,27.9585921 L60.952381,54.0621118 Z" id="Shape"></path>
                </g>
                <g id="Group-4" transform="translate(12.088889, 32.000000)" fill-rule="nonzero">
                    <path d="M8.25174673,10.396305 L6.1770338,9.24444444 L8.25174673,8.09258386 L9.2004558,8.33702709 C9.51179186,8.41724557 9.8300419,8.23343812 9.91614277,7.92367726 L9.91614277,7.92367726 C10.0002001,7.6212684 9.82319119,7.30797565 9.52078233,7.22391833 C9.51739937,7.222978 9.51400776,7.22206905 9.51060795,7.22119158 L9.46741837,7.21004467 C9.16115354,7.13099998 8.97695523,6.8186449 9.05599992,6.51238008 C9.05686144,6.50904209 9.05775307,6.50571195 9.05867471,6.50239005 L9.05867471,6.50239005 C9.14330558,6.19735438 8.96463218,5.88146725 8.65959651,5.79683638 C8.65642169,5.79595554 8.65323934,5.79510209 8.6500498,5.79427613 L8.63550866,5.79051055 C8.31400458,5.70725368 7.98505748,5.89686146 7.8959556,6.21679494 L7.65211872,7.09232724 L5.57740579,8.24583569 L5.57740579,5.94046665 L6.25841189,5.28543863 C6.48365992,5.06878306 6.49062548,4.7105494 6.2739699,4.48530138 C6.26888522,4.48001503 6.26369823,4.47482805 6.25841189,4.46974337 L6.25841189,4.46974337 C6.0216106,4.24197525 5.64716785,4.24197525 5.41036656,4.46974337 L5.4060835,4.47386304 C5.16689028,4.70393184 4.78866527,4.70393184 4.54947205,4.47386304 L4.545189,4.46974337 C4.30838771,4.24197525 3.93394495,4.24197525 3.69714366,4.46974337 L3.69714366,4.46974337 C3.47189564,4.68639894 3.46493008,5.04463259 3.68158565,5.26988062 C3.68667034,5.27516696 3.69185732,5.28035395 3.69714366,5.28543863 L4.37814976,5.94046665 L4.37814976,8.24583569 L2.30343684,7.09232724 L2.05829417,6.21582032 C1.96894726,5.89636069 1.64028638,5.70723615 1.31919029,5.79051055 L1.30545316,5.79407319 C0.998921857,5.8735703 0.814874276,6.18650816 0.894371382,6.49303946 C0.89518154,6.49616333 0.896018057,6.49928031 0.896880843,6.50239005 L0.896880843,6.50239005 C0.981442873,6.80717763 0.802914794,7.12280785 0.498127217,7.20736988 C0.494805326,7.20829152 0.491475181,7.20918316 0.48813719,7.21004467 L0.444947604,7.22119158 C0.141032799,7.29962975 -0.0417521304,7.60958808 0.0366860384,7.91350288 C0.0375635042,7.91690269 0.0384724584,7.9202943 0.0394127841,7.92367726 L0.0394127841,7.92367726 C0.12551366,8.23343812 0.443763691,8.41724557 0.755099755,8.33702709 L1.70380883,8.09258386 L3.77852175,9.24444444 L1.70380883,10.396305 L0.755099755,10.1518618 C0.443763691,10.0716433 0.12551366,10.2554508 0.0394127841,10.5652116 L0.0394127841,10.5652116 C-0.0446445382,10.8676205 0.132364361,11.1809132 0.434773226,11.2649706 C0.43815619,11.2659109 0.441547794,11.2668198 0.444947604,11.2676973 L0.487368397,11.2786458 C0.794165939,11.357828 0.978684646,11.6707264 0.899502465,11.9775239 C0.898657483,11.9807979 0.897783575,11.9840643 0.896880843,11.9873228 L0.896880843,11.9873228 C0.812300659,12.2926228 0.991229429,12.6086831 1.29652944,12.6932633 C1.29981736,12.6941742 1.30311335,12.6950557 1.30641701,12.6959078 L1.31919029,12.6992023 C1.64040908,12.7820508 1.96888842,12.5927386 2.0582386,12.2732672 L2.30343684,11.3965617 L4.37814976,10.2430532 L4.37814976,12.5484222 L3.69714366,13.2034503 C3.47189564,13.4201058 3.46493008,13.7783395 3.68158565,14.0035875 C3.68667034,14.0088739 3.69185732,14.0140608 3.69714366,14.0191455 L3.69714366,14.0191455 C3.93394495,14.2469136 4.30838771,14.2469136 4.545189,14.0191455 L4.54947205,14.0150259 C4.78866527,13.784957 5.16689028,13.784957 5.4060835,14.0150259 L5.41036656,14.0191455 C5.64716785,14.2469136 6.0216106,14.2469136 6.25841189,14.0191455 L6.25841189,14.0191455 C6.48365992,13.8024899 6.49062548,13.4442563 6.2739699,13.2190083 C6.26888522,13.2137219 6.26369823,13.2085349 6.25841189,13.2034503 L5.57740579,12.5484222 L5.57740579,10.2430532 L7.65211872,11.3965617 L7.89601087,12.2722924 C7.98511609,12.5922379 8.31388178,12.7820333 8.63550866,12.6992023 L8.64908641,12.6957055 C8.95576546,12.6167241 9.14035087,12.3040845 9.06136946,11.9974055 C9.06050182,11.9940365 9.05960353,11.9906754 9.05867471,11.9873228 L9.05867471,11.9873228 C8.97408077,11.6819731 9.15303864,11.3658614 9.4583883,11.2812674 C9.4616468,11.2803647 9.46491321,11.2794908 9.46818716,11.2786458 L9.51060795,11.2676973 C9.81452276,11.1892591 9.99730769,10.8793008 9.91886952,10.575386 C9.91799205,10.5719862 9.9170831,10.5685946 9.91614277,10.5652116 L9.91614277,10.5652116 C9.8300419,10.2554508 9.51179186,10.0716433 9.2004558,10.1518618 L8.25174673,10.396305 Z" id="Path" fill="#000000"></path>
                    <path d="M36.6120635,2.62564103 C36.6120635,1.17792821 35.408894,-5.32907052e-15 33.9301587,-5.32907052e-15 C32.4514235,-5.32907052e-15 31.248254,1.17792821 31.248254,2.62564103 L31.248254,11.8196513 C30.8141206,12.3861333 30.5777778,13.0743795 30.5777778,13.7846154 C30.5777778,15.5943385 32.0816559,17.0666667 33.9301587,17.0666667 C35.7786616,17.0666667 37.2825397,15.5943385 37.2825397,13.7846154 C37.2825397,13.0747077 37.0461968,12.3861333 36.6120635,11.8196513 L36.6120635,2.62564103 Z M33.9301587,15.7538462 C32.8208559,15.7538462 31.9187302,14.8706462 31.9187302,13.7846154 C31.9187302,13.3077333 32.0974121,12.8466051 32.4219225,12.4859077 C32.5298692,12.3661128 32.5892063,12.2115282 32.5892063,12.0520205 L32.5892063,2.62564103 C32.5892063,1.90162051 33.1906235,1.31282051 33.9301587,1.31282051 C34.669694,1.31282051 35.2711111,1.90162051 35.2711111,2.62564103 L35.2711111,12.0520205 C35.2711111,12.2115282 35.3304483,12.3657846 35.4383949,12.4855795 C35.7629054,12.8466051 35.9415873,13.3080615 35.9415873,13.7846154 C35.9415873,14.8706462 35.0394616,15.7538462 33.9301587,15.7538462 Z" id="Shape" fill="#000000"></path>
                    <path d="M34.6006349,12.8121395 L34.6006349,11.3165088 C34.6006349,10.9541703 34.3002616,10.6600985 33.9301587,10.6600985 C33.5600559,10.6600985 33.2596825,10.9541703 33.2596825,11.3165088 L33.2596825,12.8121395 C32.8607492,13.0395857 32.5892063,13.4583754 32.5892063,13.9421498 C32.5892063,14.6661703 33.1906235,15.2549703 33.9301587,15.2549703 C34.669694,15.2549703 35.2711111,14.6661703 35.2711111,13.9421498 C35.2711111,13.4580472 34.9995683,13.0395857 34.6006349,12.8121395 Z" id="Path-Copy" fill="#D0021B"></path>
                </g>
            </g>
        </g>
    </g>
</svg>