<?xml version="1.0" encoding="UTF-8"?>
<svg width="100px" height="100px" viewBox="0 0 100 100" version="1.1" xmlns="http://www.w3.org/2000/svg" xmlns:xlink="http://www.w3.org/1999/xlink">
    <!-- Generator: Sketch 58 (84663) - https://sketch.com -->
    <title>Truck Scale</title>
    <desc>Created with Sketch.</desc>
    <g id="Truck-Scale" stroke="none" stroke-width="1" fill="none" fill-rule="evenodd">
        <path d="M67.8397182,27.0243397 C67.7598126,27.1187736 67.6944352,27.2204717 67.6435862,27.3366982 L67.8397182,27.0243397 Z" id="Path" fill="#000000" fill-rule="nonzero"></path>
        <g id="Group-2" transform="translate(6.000000, 19.000000)">
            <g id="Group" transform="translate(15.000000, 0.000000)">
                <path d="M61.9327323,26.1265798 L61.4300523,25.8036718 C60.2185083,25.0249439 59.2267803,23.2076279 59.2267803,21.7703039 L59.2267803,18.8948039 C59.2267803,17.4540719 58.4548683,15.5004359 57.5031843,14.5513079 C56.5549083,13.6030319 54.6012723,12.8277119 53.1630963,12.8277119 L42.2736844,12.8277119 C40.8295444,12.8277119 39.6512284,14.0026199 39.6512284,15.4467599 L39.6512284,28.8623518 C39.6512284,30.3030838 38.4763204,31.4813998 37.0355884,31.4813998 L2.61564061,31.4813998 C1.17490862,31.4813998 6.23493746e-07,32.6597158 6.23493746e-07,34.0970398 L6.23493746e-07,38.1908998 C6.23493746e-07,39.6290758 1.17490862,40.8065398 2.61564061,40.8065398 L7.05541258,40.8065398 C8.42628057,38.3970838 11.0155086,36.7663558 13.9915445,36.7629478 C16.9667285,36.7663558 19.5559565,38.3970838 20.9336405,40.8065398 L42.3938164,40.8065398 C43.7646844,38.3936758 46.3573204,36.7663558 49.3299483,36.7663558 C52.3051323,36.7663558 54.8909523,38.3936758 56.2660803,40.8065398 L61.5178083,40.8065398 C62.9559843,40.8065398 64.1368562,39.6282238 64.1368562,38.1908998 L64.1368562,30.1633558 C64.1360042,28.7226238 63.1476843,26.9087158 61.9327323,26.1265798 Z" id="Path" stroke="#000000" stroke-width="2.27199999" fill-rule="nonzero"></path>
                <path d="M55.0136403,22.3360319 C55.0136403,23.4376679 54.1079643,24.3399359 53.0037723,24.3399359 L46.1170564,24.3399359 C45.0188284,24.3399359 44.1131524,23.4376679 44.1131524,22.3360319 L44.1131524,19.6403039 C44.1131524,18.5352599 45.0188284,17.6363999 46.1170564,17.6363999 L53.0029203,17.6363999 C54.1079643,17.6363999 55.0127883,18.5352599 55.0127883,19.6403039 L55.0127883,22.3360319 L55.0136403,22.3360319 Z" id="Path" stroke="#D0021B" stroke-width="2.27199999" fill-rule="nonzero"></path>
                <path d="M13.9906925,39.8696238 C12.1870086,39.8730318 10.5826926,40.6849878 9.48105657,41.9433918 C8.55919257,43.0015757 7.97983258,44.3664797 7.97983258,45.8804837 C7.98664858,49.2015797 10.6721526,51.8845277 13.9906925,51.8913437 C17.3117885,51.8845277 20.0015525,49.1990237 20.0083685,45.8804837 C20.0083685,44.3664797 19.4221925,43.0015757 18.4977725,41.9433918 C17.3986925,40.6849878 15.7943765,39.8730318 13.9906925,39.8696238 Z M13.9906925,48.2294477 C12.6930965,48.2294477 11.6408766,47.1780797 11.6408766,45.8796317 C11.6408766,44.5811837 12.6922445,43.5298157 13.9906925,43.5298157 C15.2891405,43.5298157 16.3405085,44.5811837 16.3405085,45.8796317 C16.3405085,47.1780797 15.2891405,48.2294477 13.9906925,48.2294477 Z" id="Shape" stroke="#000000" stroke-width="1.70399999" fill-rule="nonzero"></path>
                <path d="M49.3290963,39.8662158 C47.5220043,39.8730318 45.9210964,40.6849878 44.8228684,41.9433918 C43.9010044,43.0015757 43.3182364,44.3664797 43.3182364,45.8804837 C43.3250524,49.1990237 46.0139644,51.8845277 49.3290963,51.8913437 C52.6442283,51.8845277 55.3331403,49.1990237 55.3399563,45.8804837 C55.3399563,44.3664797 54.7605963,43.0015757 53.8353243,41.9433918 C52.7336883,40.6849878 51.1327803,39.8730318 49.3290963,39.8662158 Z M49.3290963,48.2328557 C48.0315003,48.2328557 46.9792803,47.1780797 46.9792803,45.8796317 C46.9792803,44.5811837 48.0306483,43.5298157 49.3290963,43.5298157 C50.6275443,43.5298157 51.6823203,44.5811837 51.6823203,45.8796317 C51.6823203,47.1780797 50.6266923,48.2328557 49.3290963,48.2328557 Z" id="Shape" stroke="#000000" stroke-width="1.70399999" fill-rule="nonzero"></path>
                <path d="M1.93659661,27.7962158 L34.5085564,27.7962158 C34.9440699,27.7962158 35.3091524,27.4319078 35.3091524,26.9981758 L35.3091524,1.93403999 C35.3091524,1.49886478 34.9451847,1.13599999 34.5085564,1.13599999 L1.93659661,1.13599999 C1.49804341,1.13599999 1.13599999,1.49738419 1.13599999,1.93403999 L1.13599999,23.9795399 L1.13599963,26.9990869 C1.13565173,27.4328885 1.49931008,27.7962158 1.93659661,27.7962158 Z" id="Path" stroke="#000000" stroke-width="2.27199999"></path>
            </g>
            <path d="M0.573742262,60.1202398 L9.0625196,56.1202398 C9.19583963,56.057418 9.34139754,56.0248415 9.48877734,56.0248415 L87.6134072,56.0248415 C88.1656919,56.0248415 88.6134072,56.4725568 88.6134072,57.0248415 L88.6134072,61.0248415 C88.6134072,61.5771263 88.1656919,62.0248415 87.6134072,62.0248415 L1,62.0248415 C0.44771525,62.0248415 0,61.5771263 0,61.0248415 C0,60.6376635 0.22350037,60.2852774 0.573742262,60.1202398 Z" id="Path-2" stroke="#1D1E1F" fill="#000000" stroke-linecap="square"></path>
        </g>
    </g>
</svg>